<svg width="318" height="150" viewBox="0 0 318 150" fill="none" xmlns="http://www.w3.org/2000/svg">
<path d="M313.129 7.00586C313.133 7.00899 313.138 7.0125 313.143 7.01562L214.504 149.15L194.741 118.515L174.876 149.036L104.838 49.0117C97.5706 40.4171 86.7118 34.9571 74.5752 34.957C52.6949 34.9572 34.9572 52.6949 34.957 74.5752C34.957 96.4556 52.6948 114.193 74.5752 114.193C87.0241 114.193 98.1296 108.449 105.393 99.4697L125.866 128.71C112.499 141.379 94.4453 149.151 74.5752 149.151C33.3884 149.151 0 115.762 0 74.5752C0.000156683 33.3885 33.3885 0.000156703 74.5752 0C98.5477 3.8402e-05 119.877 11.3122 133.521 28.8887L133.523 28.8867L133.56 28.9385C133.576 28.9597 133.593 28.9807 133.609 29.002L133.605 29.0039L194.627 116.151L264.401 15.6094C271.392 5.53623 282.675 0.293127 294.034 0.619141L318 0L313.129 7.00586ZM223.829 23.5381L194.362 74.5752L164.896 23.5381H223.829Z" fill="url(#paint0_linear_2027_31)"/>
<defs>
<linearGradient id="paint0_linear_2027_31" x1="100.726" y1="-1.7055e-06" x2="217.274" y2="149.151" gradientUnits="userSpaceOnUse">
<stop stop-color="#7D2AEC"/>
<stop offset="1" stop-color="#4A20E3"/>
</linearGradient>
</defs>
</svg>
